<?xml version="1.0" encoding="UTF-8"?>
<svg width="546px" height="211px" viewBox="0 0 546 211" version="1.1" xmlns="http://www.w3.org/2000/svg" xmlns:xlink="http://www.w3.org/1999/xlink">
    <!-- Generator: Sketch 59.1 (86144) - https://sketch.com -->
    <title>Group 4 Copy</title>
    <desc>Created with Sketch.</desc>
    <g id="Page-1" stroke="none" stroke-width="1" fill="none" fill-rule="evenodd">
        <g id="Group-4-Copy" fill="#FFFFFE">
            <path d="M276.433074,133.515953 C276.362106,133.015748 275.888991,132.729917 275.39222,132.753737 C275.155662,132.777556 274.753514,133.039568 274.706202,133.253941 C274.587923,133.825603 275.037383,134.087615 275.534154,134.206711 C275.983614,134.182892 276.527697,134.135254 276.433074,133.515953 Z M119.098517,117.676146 C119.571633,117.723785 120.09206,117.580869 119.950125,116.937749 C119.926469,116.747195 119.453354,116.532822 119.216796,116.556641 C118.980238,116.60428 118.767337,116.91393 118.483467,117.175942 C118.696369,117.342677 118.885615,117.652327 119.098517,117.676146 Z M112.498556,117.080665 C112.593179,117.604688 113.042639,117.747604 113.492099,117.55705 C113.610378,117.509411 113.705001,117.033026 113.610378,116.842472 C113.515755,116.651918 113.184574,116.556641 112.948016,116.437545 C112.782426,116.651918 112.4749,116.890111 112.498556,117.080665 Z M73.3482494,91.8798895 C72.1181492,91.3558658 71.0772951,91.4273236 69.7289159,92.9993946 C71.6213779,93.0708524 72.5912647,92.8802984 73.3482494,91.8798895 Z M144.102671,114.603462 C144.102671,115.365678 144.552131,115.746786 145.261804,115.484774 C145.924166,115.246582 146.018789,114.579643 145.924166,113.960342 C145.853198,113.483957 145.545673,113.150487 144.836,113.245764 C144.339229,113.436318 144.079015,113.960342 144.102671,114.603462 Z M152.476815,113.603053 C152.571438,113.436318 152.334881,112.864656 152.16929,112.840837 C150.915534,112.626463 150.134894,113.245764 149.661778,114.412908 C150.868223,114.98457 151.861765,114.794016 152.476815,113.603053 Z M129.057598,123.106937 C128.844696,123.106937 127.638252,123.106937 125.414609,123.106937 C127.685563,124.226442 128.821041,122.964022 129.057598,123.106937 Z M375.408834,164.552446 C375.385178,164.314254 375.006686,163.956965 374.770128,163.909326 C372.948634,163.647315 372.854011,165.07647 372.404551,166.767637 C374.131422,166.434168 375.527113,166.386529 375.408834,164.552446 Z M357.856249,24.1379191 C357.879905,23.3280643 357.643348,22.3514747 356.720772,22.4943902 C355.301426,22.6849443 355.72723,23.7568109 356.082066,24.6381235 C356.318624,25.1859664 356.578838,25.7814479 357.359478,25.7576286 C357.950873,25.3527012 357.856249,24.7095813 357.856249,24.1379191 Z M375.88195,38.4771125 C376.970115,38.3818355 377.585165,37.5719807 377.608821,36.5477526 C377.632477,35.8093556 376.94646,35.3567897 376.260442,35.571163 C375.337867,35.8569941 374.675505,36.5477526 374.344324,37.5005229 C374.651849,38.1912814 375.243244,38.524751 375.88195,38.4771125 Z M232.764514,126.203441 C235.579551,127.465861 235.579551,127.465861 238.347277,126.036706 C236.502126,125.631778 234.680632,125.203032 232.764514,126.203441 Z M356.862707,173.961053 C354.591753,172.984464 353.456275,173.984873 352.107896,175.866594 C354.993901,175.771317 354.993901,175.771317 356.862707,173.961053 Z M100.363144,114.079438 C103.272804,112.578825 103.272804,112.578825 101.948081,108.315178 C101.143784,110.435092 100.315832,112.030982 100.363144,114.079438 Z M376.189475,28.4730241 C376.828181,28.9017707 377.656133,29.2352403 378.34215,28.4730241 C379.051823,27.6869885 378.696987,26.9724108 377.987314,26.4722064 C376.638934,25.519436 375.692703,23.8282687 373.185191,24.0188228 C374.533571,25.5432553 374.699161,27.4249767 376.189475,28.4730241 Z M79.1202584,94.9763931 C80.5869164,95.0478509 81.5331474,94.4523694 81.6750821,92.8802984 C81.8170167,91.3558658 81.0600319,90.2601799 79.6643412,90.1887222 C77.6536004,90.0458066 78.221339,92.2133591 77.5116658,92.9517561 C77.275108,94.5476464 78.0320928,94.9049353 79.1202584,94.9763931 Z M370.062629,167.529854 C367.791675,167.053469 365.993836,166.553264 364.479866,168.244431 C363.462668,169.363937 362.185256,169.959418 360.955156,170.721634 C357.832594,172.698633 357.903561,173.127379 361.499239,175.461667 C363.178799,171.81732 367.389527,170.888369 370.062629,167.529854 Z M362.492781,27.63935 C361.783108,29.9974566 362.752995,31.5457084 364.976638,31.9268165 C367.082002,32.3079246 367.555117,30.6405766 368.170167,29.1399633 C369.092742,26.8771338 368.075544,24.1379191 370.346498,22.1132821 C371.387353,21.184331 368.950808,17.5638038 367.318559,17.4685267 C365.473409,17.3732497 365.449753,18.7547667 365.402442,20.1124644 C365.236851,23.399522 365.213195,23.399522 361.806764,23.6138954 C361.948698,23.3280643 362.114289,23.0422332 362.256224,22.7564021 C362.398158,22.4467517 362.469126,22.1609206 362.587404,21.8512703 C363.107831,20.4221148 358.376677,19.0882363 362.563749,17.4208882 C363.036864,17.2303342 358.731513,12.9428677 357.57238,13.6336262 C355.396049,14.9436854 354.544441,13.5859877 353.976702,12.1091936 C353.479931,10.7753152 355.585295,8.48866639 357.028297,8.2504738 C357.927217,8.10755825 358.944415,9.01269007 359.7014,7.9646427 C359.488498,5.72563243 357.643348,4.79668136 356.271313,3.51044141 C355.490672,2.74822515 354.071326,2.24802072 354.710031,0.890323005 C355.254114,-0.324459166 356.649805,0.056648966 357.737971,0.056648966 C358.897104,0.056648966 359.890646,0.652130422 360.836877,1.24761188 C363.320733,2.81968292 366.159426,3.51044141 368.785217,4.72522358 C372.972289,6.67840276 378.294839,6.63076424 380.707728,11.6566277 C380.896974,12.0377359 381.464712,12.3712055 381.890516,12.4664825 C384.44534,12.9666869 385.911998,14.9675046 387.686181,16.5633949 C389.815201,18.4451163 391.920565,20.3744763 394.759258,21.732174 C394.617323,20.8746807 394.428077,20.25538 394.428077,19.6360792 C394.428077,17.4447075 395.13775,16.8968645 396.911933,17.7067193 C397.621606,18.0401889 398.686116,18.4689356 398.828051,19.0405978 C399.608691,22.0894628 401.217284,22.7087636 403.866731,21.2796081 C404.079633,21.1605118 404.718339,21.6130777 404.978552,21.9703666 C407.367786,25.2097857 411.3183,26.1863753 414.393551,28.4492048 C418.083851,31.1646002 421.442971,34.5707542 425.748322,36.30956 C428.421425,37.3814266 430.242919,39.3107866 432.300972,41.0257732 C435.754715,43.8840841 439.113835,46.8138529 443.064349,49.0528632 C447.227766,51.434789 451.391182,53.8881726 455.199762,56.9132184 C458.558882,59.5809753 461.894346,62.4869248 466.152385,63.701707 C468.021191,64.2257307 469.416882,65.821621 471.900738,65.273778 C473.059871,65.0117662 473.7932,68.5370164 475.662007,69.5374253 C475.803941,69.6327023 475.92222,69.7517986 476.064155,69.8232564 C480.724342,71.9908089 484.272708,75.9448057 489.003863,78.0170812 C489.760848,78.3267316 490.565144,78.5887434 490.919981,79.3509597 C492.197393,81.9948973 493.640395,81.3041388 495.46189,79.8749834 C497.709188,78.088539 497.945746,78.1123582 499.010256,80.8515729 C499.577995,82.328367 500.264012,83.5193299 501.73067,83.9718958 C504.569363,84.8532083 506.76935,86.7111105 508.945681,88.5928319 C509.939224,89.4503252 510.956422,90.1649029 512.304801,90.4030955 C517.177891,91.2844081 521.175717,94.142719 524.842362,97.1677648 C527.586432,99.4305944 530.306846,101.574328 533.382096,103.384591 C537.687447,105.885613 542.678816,107.719696 544.452999,113.198126 C544.618589,113.722149 546.132559,113.36486 545.990624,114.794016 C545.068049,115.508594 543.837949,116.104075 543.080964,117.080665 C538.964859,122.392359 533.19285,125.58414 528.035891,129.609595 C525.764937,131.396039 523.683229,133.325399 520.868192,134.278169 C518.762828,135.016566 516.870366,135.874059 514.883281,137.303215 C508.519877,141.900332 501.73067,146.092521 494.657593,149.498675 C485.83399,153.738503 476.584582,157.097019 467.500764,160.812823 C455.128794,165.838686 442.685857,170.745454 430.881625,177.009918 C424.187041,180.582807 417.326867,183.750769 410.466692,186.91873 C396.154948,193.516664 381.724926,199.876406 367.342215,206.331425 C363.415356,208.070231 359.559465,209.975772 355.44336,211 C354.402506,209.213556 355.608951,207.617665 355.088524,206.164691 C353.196062,205.54539 351.989617,207.165099 350.428336,207.284196 C349.198236,207.379473 348.039103,207.022184 347.613299,205.85504 C347.187495,204.759354 348.275661,204.211511 349.056301,203.663668 C350.404681,202.758537 352.462733,202.472706 352.344454,199.971683 C349.836942,199.44766 348.55953,202.591802 346.193953,201.901043 C345.839116,199.471479 347.542332,198.566347 349.813286,197.565938 C344.301491,197.113372 343.426227,196.065325 343.875687,191.277654 C343.922998,190.77745 344.112244,190.181968 343.497194,190.110511 C339.404745,189.610306 342.338061,186.299429 341.297207,184.584443 C339.901517,185.275201 338.553137,186.132694 336.305839,185.894502 C337.41766,184.6559 339.357434,184.179515 338.93163,182.535986 C338.174645,179.606218 340.138074,178.534351 342.030536,177.224292 C359.535809,165.338482 377.963658,155.143839 397.456016,146.950015 C401.217284,145.354124 404.76565,143.329487 408.053803,140.137707 C405.972095,139.137298 404.174256,139.351671 402.47104,139.327852 C397.645262,139.256394 392.819484,139.351671 387.993706,139.304033 C380.589449,139.208756 373.185191,139.042021 365.780934,138.946744 C355.845509,138.803828 346.075674,136.612456 336.116593,136.49336 C321.07152,136.302806 306.026448,135.897879 290.957719,135.564409 C285.990007,135.469132 280.998638,135.397674 276.00727,135.302397 C275.061039,135.278578 273.476102,135.564409 273.310511,134.849831 C272.506215,131.03875 269.620211,132.372629 267.514847,132.396448 C259.495539,132.491725 251.452576,132.062978 243.48058,131.300762 C238.016096,130.752919 232.646235,130.490907 227.205407,131.157846 C225.596814,131.3484 223.964566,131.419858 222.379629,131.276943 C215.495798,130.610003 208.588312,130.538546 201.680826,130.7291 C196.594835,130.872015 191.508843,130.752919 186.422852,130.752919 C186.37554,130.347992 186.351884,129.943064 186.328229,129.514318 C190.420677,128.15662 194.867963,128.347174 199.078691,127.727873 C203.78619,127.037115 208.99046,128.442451 213.41409,127.060934 C218.097934,125.58414 222.521564,129.061752 226.945193,126.751284 C226.661324,124.083527 223.988222,122.749648 223.846287,120.200988 C223.822631,119.915156 223.089302,119.510229 222.663498,119.510229 C219.446313,119.414952 216.323751,119.010025 213.272156,117.89052 C212.870008,117.747604 212.042055,117.842881 211.923777,118.081074 C210.102282,121.511047 207.973262,119.367314 206.057144,118.366905 C201.751793,116.056437 200.971153,116.080256 196.523867,119.367314 C198.321706,119.724602 200.048578,119.629325 201.799105,119.129121 C202.10663,119.033844 202.72168,119.414952 202.934582,119.724602 C203.33673,120.320084 203.147484,121.010842 202.698024,121.511047 C200.923841,123.392768 197.304508,124.178804 194.986242,122.892564 C193.022813,121.844516 191.083039,121.630143 188.930364,121.844516 C187.108869,122.011251 185.169096,122.320902 183.513191,120.486819 C186.233605,118.462182 189.805627,120.796469 192.431418,118.009616 C189.852939,117.580869 187.700263,116.890111 185.92608,115.484774 C184.151897,114.103257 182.117501,114.293812 180.461596,115.032209 C178.4272,115.93734 176.794951,117.033026 175.257326,114.436727 C175.091736,114.198534 174.121849,114.055619 173.979914,114.246173 C172.32401,116.437545 170.928319,114.127077 169.438006,114.079438 C167.853069,114.0318 166.481034,113.245764 164.825129,113.198126 C162.08106,113.102849 160.56709,113.769788 159.95204,116.485183 C159.715482,117.55705 159.644515,118.867109 158.343447,119.272036 C156.498297,119.843699 154.534868,120.177168 152.642406,119.724602 C151.246715,119.391133 149.306941,119.676964 148.999416,117.318857 C148.857482,116.246991 147.816628,116.461364 147.035987,116.651918 C146.34997,116.842472 146.0661,117.271219 145.971477,118.033435 C145.711264,120.081891 146.160723,120.963204 148.786514,122.654371 C146.96502,123.702419 144.149983,122.749648 143.345686,123.940611 C140.956453,127.465861 137.95217,125.679417 135.160788,125.631778 C133.386605,125.58414 131.659734,125.822333 129.885551,126.012887 C126.218905,126.393995 122.55226,126.918018 118.86196,126.036706 C118.152286,125.869971 116.827563,126.060525 117.158744,124.94102 C117.892073,122.416179 115.029724,122.987841 114.272739,121.41577 C113.397476,119.557868 110.984587,120.77265 110.487815,123.273672 C110.440504,123.464226 109.943733,123.65478 109.659863,123.678599 C106.135153,123.821515 102.610443,123.96443 99.0620763,124.059707 C98.3760589,124.083527 97.8083203,123.65478 97.6663856,122.964022 C97.5007952,122.297082 97.8083203,121.72542 98.3997146,121.320493 C99.3459456,120.629734 100.481423,120.534457 101.569588,120.296265 C102.06636,120.177168 102.302917,119.676964 102.279262,119.176759 C102.23195,118.414543 101.735179,117.747604 101.072817,118.033435 C97.5481068,119.653145 98.6599282,116.747195 98.7545513,115.437136 C98.8491744,113.531595 99.7007822,111.530778 98.2341242,109.887249 C96.6018758,108.076985 98.2814358,106.981299 99.3459456,105.599782 C98.3760589,105.528324 97.9029434,105.433047 97.4298279,105.480686 C95.8922026,105.647421 93.8814617,105.02812 93.1481327,106.862203 C92.6277057,108.219901 95.0169389,108.196081 95.2298409,109.601418 C95.3717755,110.530369 95.9395141,111.387862 96.1760718,112.340632 C96.365318,113.150487 96.1524161,114.34145 95.3717755,114.365269 C91.6814747,114.508185 90.9954572,118.20017 88.7008471,119.962795 C87.5653699,120.844108 86.8083851,120.915565 85.7438753,120.486819 C85.4836618,120.391542 85.1524809,120.034253 85.1524809,119.79606 C85.1288251,118.581278 86.0987119,118.223989 86.9976313,117.938158 C87.9911739,117.604688 89.4578319,117.985797 89.5051434,116.294629 C89.552455,114.579643 88.2986989,114.222354 86.9739756,113.960342 C85.980433,113.769788 85.4363502,112.555006 85.9331215,112.197717 C88.9137491,110.006345 86.0040888,107.505323 86.3589254,105.123397 C86.9030082,101.693424 85.9094657,101.1694 82.3610995,100.621557 C79.2858488,100.145172 75.9740404,99.6926062 73.0880359,99.7402447 C70.0127852,99.7878832 67.5052731,97.6917885 63.9805627,98.5492818 C67.623552,96.167356 66.1095824,92.4277324 67.3160269,89.5217829 C68.0730117,87.6400615 67.5762405,85.8059787 65.4472208,85.2104972 C59.9827368,83.6384262 54.5892203,83.1858602 50,87.6162423 L50.0946231,87.7353386 C50.212902,82.8523906 50.8279521,81.6376085 54.092449,81.3755966 C56.7655515,81.1612233 59.6279002,81.9948973 62.1117565,81.2803196 C64.5719571,80.5895611 66.8192557,80.0655374 69.4213909,80.1369952 C72.7805109,80.2322722 76.3052213,80.7086574 79.5224066,79.0413093 C83.9460364,80.9230307 88.7481586,77.9456234 93.1481327,80.1131759 C93.7395271,80.4228263 94.378233,80.0178989 94.9459716,79.66061 C96.3416623,78.7792975 98.0212223,78.8507552 99.5115361,78.3743701 C104.928708,76.6832027 110.937275,79.5415137 116.094234,76.1591791 C119.122173,77.7788886 122.031833,75.5875169 124.988805,75.7780709 C125.272674,76.8261183 123.474836,76.4688294 123.971607,77.7074309 C125.29633,77.9932619 126.8103,77.4692383 128.111367,78.3029123 C128.962975,78.826936 129.885551,79.3271404 130.808126,78.8507552 C132.416718,78.0409005 131.186618,76.9452146 130.879093,75.9924443 C130.61888,75.1587702 130.997372,74.6823851 131.707045,74.587108 C132.085538,74.5156502 132.724243,74.7062043 132.937145,75.0158547 C133.386605,75.6589746 134.025311,76.5402872 133.907032,77.1834072 C133.291982,80.2560915 134.995198,80.0655374 136.911316,79.470056 C138.212383,79.0651286 139.537107,79.6129715 140.696239,79.3271404 C141.689782,79.0651286 144.954279,79.1127671 141.784405,76.707022 C140.743551,75.9209865 141.240322,74.5632888 141.949996,73.6819762 C142.612357,72.8721214 143.676867,72.8721214 144.646754,73.110314 C145.947821,73.4199644 145.167181,74.2536384 145.096214,74.9920354 C144.883312,77.0166724 146.941364,79.7558871 149.212318,80.7324766 C151.459617,81.685247 152.287569,81.042127 153.777883,78.9698515 C155.575722,76.4450102 154.700458,74.8967584 152.287569,73.2532296 C153.943473,73.3961451 155.102606,72.8006637 156.332706,72.5862903 C156.971412,72.4910133 158.012266,72.7530251 157.82302,73.3961451 C157.089691,75.9209865 158.863874,75.968625 160.4015,76.3735524 C161.01655,76.5402872 161.773535,76.9213953 161.324075,77.7074309 C159.999351,80.1131759 162.033748,80.30373 163.263848,80.30373 C167.971347,80.399007 172.702502,82.5427403 177.386346,79.9464411 C178.285265,79.4462367 179.609989,79.4462367 180.698154,79.6129715 C184.743292,80.208453 188.67015,79.5176945 192.597009,78.7554782 C194.32388,78.3981893 196.121719,78.279093 197.872246,78.2552738 C199.480839,78.2314545 201.04212,78.4934664 202.343188,79.7082485 C204.921667,82.1139936 204.945323,82.0901744 207.996918,79.3985982 C208.682935,83.0191254 211.332382,82.6380173 213.934517,82.5427403 C216.465685,82.4474632 219.209755,83.162041 220.297921,79.7082485 C220.510823,78.9460323 221.575333,78.183816 222.143071,78.9460323 C223.278548,80.5657418 223.846287,80.208453 225.431224,79.2795019 C227.229063,78.2314545 229.712919,78.3267316 231.912906,78.0409005 C232.622579,77.9456234 233.805368,77.7312501 233.805368,78.8745745 C233.829024,81.3279581 235.413961,80.6610189 236.809651,80.6610189 C243.291334,80.7086574 249.607425,78.1599968 256.160075,79.4938752 C256.609535,79.5891523 257.177273,79.565333 257.579421,79.3747789 C263.304119,76.7546605 269.501932,78.6363819 275.510498,77.3025035 C280.525523,76.1591791 286.179253,77.3977805 291.596425,76.8261183 C293.630822,76.611745 295.807153,77.445419 296.918974,74.8253006 C297.344778,73.8248918 298.291009,74.1583614 299.000683,74.5632888 C301.768408,76.1115405 305.056561,75.134951 307.871598,76.4688294 C308.959764,76.9928531 310.024273,76.5879257 310.899537,75.6351554 C313.761886,72.467194 317.475842,72.7292059 321.189799,73.205591 C322.632801,73.3961451 324.052148,74.0869036 325.471494,73.6581569 C329.351041,72.5386518 333.135965,73.4914221 336.944545,73.9201688 C341.723011,74.4441925 346.501478,74.9443969 351.256288,75.5160591 C353.243373,75.7542517 353.527243,74.8491199 352.888537,73.2770488 C352.604668,72.5862903 351.847683,71.9908089 352.888537,71.0142193 C360.671287,69.5850638 368.666938,71.0618578 376.638934,71.0142193 C384.705554,70.9904 392.488303,73.4676029 401.146317,73.9678073 C399.797938,71.8955318 398.591493,71.0380385 397.337737,70.3949186 C394.735602,69.0848594 398.094722,67.9891735 397.361393,66.7982106 C397.290426,66.6791143 397.172147,66.5361987 397.053868,66.4409217 C393.836683,63.9398996 391.376482,60.3908301 387.071131,59.0093131 C386.787262,60.3670108 387.18941,61.1054079 388.159297,61.6056123 C389.152839,62.129636 390.382939,62.129636 391.139924,63.1062255 C391.565728,63.6540685 391.920565,64.2495499 391.32917,64.7973929 C391.068957,65.0594047 390.311972,65.2499588 390.051759,65.083224 C387.709837,63.4158759 385.415227,61.6532508 383.144272,59.8906257 C382.623845,59.461879 382.671157,58.8425783 382.789436,58.1518198 C383.238896,55.1982318 382.245353,54.1025459 379.595906,55.1505933 C377.987314,55.769894 377.585165,55.769894 377.514198,54.1263652 C377.490542,53.3403297 376.970115,53.2450526 376.378721,52.911583 C374.060455,51.6253431 372.286272,49.862718 371.340041,47.2187803 C370.299187,44.4081078 369.518546,44.1937345 366.537919,45.2894204 C365.828245,45.5514322 365.284163,45.3608782 364.787391,44.9559508 C362.705683,43.1933257 360.387417,41.8118087 358.353021,39.906268 C356.602493,38.2389199 354.733687,36.5239333 353.030471,34.8565853 C351.776715,33.6418031 350.428336,34.0229112 349.411138,33.2130564 C347.897168,31.9982743 350.026188,30.1641914 348.819744,28.7350359 C348.133726,27.9251811 347.187495,27.7584463 346.383199,27.2344226 C344.774606,26.2340138 343.852031,24.781039 343.615473,22.8993176 C343.497194,22.0180051 343.710096,21.4939814 344.892885,21.4701621 C347.849857,21.4463429 348.488563,20.2791992 347.353086,17.6829001 C347.021905,16.9445031 345.673526,16.4442986 346.690724,15.2533357 C347.897168,15.7535402 349.316515,16.8968645 350.191779,16.5872142 C353.14875,15.5153476 354.686376,17.587623 356.200345,19.064417 C357.950873,20.7794036 359.937958,22.0894628 361.877731,23.4947991 C362.1616,24.8763161 362.965897,26.0434597 362.492781,27.63935 L362.492781,27.63935 Z" id="Fill-2117"></path>
            <path d="M54.6230569,119.524227 C56.7910799,115.038419 52.5728613,110.654562 55.8484612,106.805943 C54.9058425,105.964854 54.4345332,105.990341 54.2695749,106.602042 C53.1384325,110.501637 52.2665102,114.477693 50.4519693,118.1479 C49.4386542,120.186903 50.1456182,121.384818 52.407903,121.435793 C56.1548123,121.537743 59.7131978,121.741644 63.0123631,124.545273 C64.4969875,125.794163 67.7254565,124.26491 69.2807773,126.992078 C69.3043427,127.043053 69.9877413,126.839152 70.0584377,126.635252 C71.4959312,122.531757 76.8452921,124.774661 78,120.390804 C74.8657929,116.414747 76.3032864,110.934925 75.3135368,105.964854 C74.0410016,106.372654 73.8996088,108.742996 72.3678534,107.97837 C70.176265,106.907893 71.7551513,104.588526 71.2131456,102.600498 C68.5266823,102.982811 65.8637846,104.359139 63.0830595,102.243672 C61.8340898,101.300633 60.7972092,103.288662 60.3258999,104.894377 C68.2674622,104.664989 68.2674622,104.664989 68.3145931,112.107352 C67.9139802,111.648576 67.5840637,111.011388 67.0891889,110.807487 C66.6178795,110.603587 66.3586594,111.266263 66.287963,111.776014 C66.1230047,113.254291 66.1701357,113.356242 67.7725874,116.465722 C68.0789385,116.491209 68.408855,116.618647 68.6916406,116.516697 C70.3176578,116.006946 71.2131456,113.636605 73.2869066,114.273793 C73.9467397,114.477693 74.1823944,115.34427 73.8053469,115.981459 C72.5092462,118.3518 72.69777,121.945544 69.2100809,122.557245 C66.4293558,123.041508 64.0021127,120.518241 64.5676839,117.383273 C64.7090767,116.516697 65.1803861,115.803046 64.3555947,115.216832 C63.5779343,114.656106 62.8945358,115.191345 62.1168754,115.522683 C60.7972092,116.108896 61.645566,117.765587 60.7029474,118.479238 C59.0062337,116.210846 59.0062337,116.210846 59.2418884,111.979914 C56.5554252,112.693565 57.2388237,115.012932 57.1681273,116.848035 C57.1209964,118.606676 57.2152583,118.606676 54.6230569,119.524227" id="Fill-2118"></path>
            <path d="M15.9996658,106.917475 C16.0253657,105.323005 14.5604723,105.519583 14.4319728,104.689585 C14.2006739,103.335377 13.8922753,102.046695 12.1960828,103.990639 C11.8619843,104.383796 11.2965869,104.20906 10.7568893,104.230902 C7.59580341,104.274586 6.54210812,105.039058 7.28740479,107.594579 C7.75000272,109.276418 7.00470605,109.735101 5.69401191,110.237469 C4.12631892,110.849046 2.53292604,111.41694 0.990932937,112.05036 C0.0400371875,112.421675 -0.165561893,113.120621 0.117136843,113.885093 C0.425535464,114.671407 1.14513225,115.02088 2.12172788,114.999038 C5.46271295,114.867986 8.54669916,113.754041 9.42049525,111.045625 C10.3970909,107.987736 12.3245823,106.764581 15.9996658,106.917475" id="Fill-2119"></path>
            <path d="M183,75.408362 C181.34629,75.3633701 179.946996,75.5658337 178.590106,75.1159146 C177.742049,74.8459631 177.042403,75.0034348 176.491166,76.0607447 C175.325088,78.3778282 173.459364,79.0527069 171,77.6129657 C171.784452,79.9750411 173.904594,81.6397418 175.240283,80.7623995 C176.787986,79.7500815 178.378092,79.5701139 180.031802,79.1876826 C181.770318,78.8052514 182.448763,77.3430142 183,75.408362" id="Fill-2120"></path>
            <path d="M84,128.746734 C83.8020652,127.707862 82.5154891,127.779509 82.3505434,126.686902 C82.2020923,125.773411 82.2020923,124.752451 81.3608694,124.000164 C80.1402716,123.982253 79.7608965,125.433091 78.7877171,125.934616 C77.3691845,126.651079 78.2928802,128.119829 78.3258693,129.158701 C78.3588584,130.090103 79.5299726,130.036369 80.2722281,129.964722 C81.5588042,129.821429 82.9443478,129.910987 84,128.746734" id="Fill-2121"></path>
            <path d="M177,122.761374 C170.801653,120.454774 170.801653,120.454774 165,122.519986 C169.214876,124.451094 169.214876,124.451094 177,122.761374" id="Fill-2122"></path>
            <path d="M53,101.490162 C55.0785214,102.118069 57.5910197,102.327371 58.0021558,101.168158 C58.5046555,99.6869414 60.2862452,97.7066192 57.3626108,96 C56.1977252,98.0769233 57.5453379,100.878355 53,101.490162" id="Fill-2123"></path>
            <path d="M9,98.7844784 C12.1880597,99.6847475 13.0835821,97.5357181 15,96.5483262 C11.0776119,95.6044957 11.0776119,95.6044957 9,98.7844784" id="Fill-2124"></path>
            <path d="M65.0037797,127.204479 C64.9228008,128.048404 66.1698763,127.610212 66.1698763,128.519055 C66.1536805,130.044613 66.2346594,130.044613 68,129.979696 C67.7894548,126.766287 67.7894548,126.766287 65.0037797,127.204479" id="Fill-2125"></path>
            <path d="M506.051228,81.3087911 C507.04164,82.8244386 509.261529,83.1201747 510.986212,83.896482 C511.276505,84.0197053 511.686331,84.081317 511.891244,83.7979033 C512.130309,83.4528778 511.959548,83.021596 511.532646,82.9723066 C509.893344,82.7874716 508.902932,82.035809 507.895444,81.2225347 C507.314857,80.7542859 506.614738,81.1362784 506,81.3580804 L506.051228,81.3087911" id="Fill-2126"></path>
            <path d="M171,76.480535 C168.947881,74.650535 167.253472,75.070535 165.559062,75.550535 C165.144873,75.670535 164.862471,76.270535 165.069566,76.870535 C165.22018,77.320535 165.615542,77.890535 165.897944,77.860535 C167.460566,77.800535 169.079669,78.130535 171,76.480535" id="Fill-2127"></path>
            <path d="M225.090959,78 C225.769037,77.8673731 226.097802,77.4694926 225.974515,76.7621494 C225.789585,75.5906122 225.193698,74.8832689 224.001924,75.0158958 C223.406037,75.0822092 222.851246,75.3695674 223.036176,76.0990151 C223.323846,77.1600299 224.04302,77.8452687 225.090959,78" id="Fill-2128"></path>
            <path d="M31,99.9922895 C29.623879,98.5957339 28.7726702,98.6733203 28.1058899,100.225049 C27.8505272,100.819878 28.0917031,101.647466 28.4605602,101.854364 C29.6380658,102.604366 29.8083076,100.225049 31,99.9922895" id="Fill-2129"></path>
            <path d="M87,126.545226 C87.4019583,126.733442 87.5885818,126.867883 87.7752053,126.921659 C88.6652558,127.136764 89.5122393,127.002324 89.9859759,125.308372 C90.0433985,125.093267 89.9141976,124.528616 89.7849967,124.394175 C88.8518793,123.372427 88.1771636,124.555504 87.4880922,125.4697 C87.3445357,125.684805 87.2440461,126.007463 87,126.545226" id="Fill-2130"></path>
            <path d="M81,110.86289 C81.1609292,111.595727 81.5431359,112.1305 82.3276655,111.972048 C83.092079,111.833404 84.0576539,111.63534 83.9973055,110.704439 C83.9570732,110.011215 83.5949826,109.020895 82.66964,109.001088 C81.5431359,108.961475 81.3017422,110.011215 81,110.86289" id="Fill-2131"></path>
            <path d="M323,66.9246855 C322.529015,65.6346855 321.907314,65.3646855 321.323292,65.1846855 C320.814628,65.0046855 320.211767,65.3046855 320.061051,66.0546855 C319.759621,67.5546855 320.645073,67.5246855 321.172577,67.7346855 C321.756599,67.9146855 322.397139,68.0946855 323,66.9246855" id="Fill-2132"></path>
            <path d="M505.955446,81 C505.376238,79.3069006 504.841584,77.5024131 503,78.1261865 C503.787129,79.7301754 504.559406,81.0891105 506,80.9108895 L505.955446,81" id="Fill-2133"></path>
            <path d="M90.0060983,121.999834 C89.9306467,123.12761 90.5594101,123.775481 91.6660335,123.967443 C92.4205495,124.111414 92.9738612,123.775481 92.9990118,123.007634 C93.0241623,121.975839 92.5714527,121.160001 91.3893776,121.01603 C90.6600122,120.920049 90.131851,121.255982 90.0060983,121.999834" id="Fill-2134"></path>
            <path d="M369,0 C369.409244,0.918771473 369.682073,1.5187855 369.954902,2.10004908 C370.250467,2.75631442 370.864333,3.30007713 371.637348,2.81256573 C372.387629,2.32505434 371.819235,1.65003856 371.319048,1.16252717 C370.77339,0.6375149 370.159524,0.131253068 369,0" id="Fill-2135"></path>
            <path d="M66.3541494,109 C65.6341494,109.197525 65.6341494,109.740717 65.5741494,110.209838 C65.4541494,110.901174 65.6341494,111.567819 66.3241494,111.987559 C66.4441494,112.06163 67.0441494,111.790034 67.1641494,111.567819 C67.6741494,110.777721 67.4941494,109.962932 66.8641494,109.222215 C66.7741494,109.098762 66.5341494,109.074072 66.3541494,109" id="Fill-2136"></path>
            <path d="M28,91.874115 C28.1108779,92.144115 28.1552291,92.414115 28.2439314,92.474115 C29.2418325,92.864115 30.2397335,92.894115 30.9715277,91.664115 C31.06023,91.514115 30.9271765,90.794115 30.7719474,90.704115 C29.5744661,89.924115 28.5987406,90.194115 28,91.874115" id="Fill-2137"></path>
            <path d="M344,76.7646382 C344.164379,77.4846382 344.657517,77.6646382 345.205449,77.6046382 C346.082139,77.4846382 347.232794,77.5746382 346.958829,76.0746382 C346.904036,75.7446382 346.082139,75.4146382 345.589001,75.3846382 C344.821897,75.3846382 344.191776,75.8346382 344,76.7646382" id="Fill-2138"></path>
            <path d="M17.2776928,87 C17.7876928,86.0377358 18.8976928,85.1509434 17.8476928,84 C16.0176928,84.9811321 16.8576928,86.0566038 17.2776928,87" id="Fill-2139"></path>
            <path d="M25.058381,103.62447 C25.118381,104.25447 25.538381,104.73447 26.108381,104.76447 C27.218381,104.76447 27.998381,104.16447 27.938381,103.02447 C27.908381,102.42447 27.188381,102.18447 26.588381,102.24447 C25.778381,102.33447 25.118381,102.66447 25.058381,103.62447" id="Fill-2140"></path>
            <path d="M15,107.520515 C14.7635798,107.190515 14.5271596,106.500515 14.1134243,106.320515 C12.960876,105.930515 12.2220629,106.620515 12.0151952,107.670515 C11.8969852,108.330515 12.4880356,108.750515 13.1086386,108.780515 C13.9361092,108.840515 14.6749223,108.630515 15,107.520515" id="Fill-2141"></path>
            <path d="M203.288628,75.3707319 C202.838628,75.5507319 201.968628,75.9407319 202.028628,76.7207319 C202.088628,77.6207319 202.988628,77.8607319 203.798628,77.6507319 C204.578628,77.4407319 205.178628,76.8707319 204.908628,75.9407319 C204.728628,75.3707319 204.188628,75.1307319 203.288628,75.3707319" id="Fill-2142"></path>
            <path d="M12,111.104487 C13.0810578,112.034487 14.1129767,111.974487 14.9729091,110.834487 C15.0957565,110.654487 14.7763531,109.544487 14.5060886,109.424487 C13.2776138,108.884487 12.4668204,109.634487 12,111.104487" id="Fill-2143"></path>
            <path d="M26.3704851,84.273547 C25.7104851,84.333547 25.1404851,84.573547 25.1404851,85.293547 C25.1104851,86.253547 25.7104851,86.853547 26.6104851,86.703547 C27.0904851,86.613547 27.7204851,86.043547 27.8104851,85.563547 C28.0804851,84.483547 27.2104851,84.333547 26.3704851,84.273547" id="Fill-2144"></path>
            <path d="M152.125513,122.765875 C152.245513,123.275875 152.785513,123.545875 153.415513,123.485875 C154.225513,123.395875 155.095513,123.065875 154.825513,122.045875 C154.765513,121.745875 153.805513,121.505875 153.235513,121.505875 C152.635513,121.505875 152.095513,121.835875 152.125513,122.765875" id="Fill-2145"></path>
            <path d="M49.9880802,87.9257434 C48.9080802,87.5357434 47.7380802,86.8157434 47.0180802,88.4057434 C46.9580802,88.5557434 47.3480802,89.1257434 47.6780802,89.2757434 C49.1480802,89.9657434 49.9280802,89.4857434 49.8680802,87.7757434 L49.9880802,87.9257434" id="Fill-2146"></path>
            <path d="M99.0579449,128.724474 C100.077945,129.504474 101.907945,129.204474 101.937945,128.634474 C102.027945,127.194474 100.617945,128.064474 99.8679449,128.064474 C99.5979449,128.064474 99.3279449,128.484474 99.0579449,128.724474" id="Fill-2147"></path>
            <path d="M40,99.7114085 C39.435741,99.6214085 38.9696141,99.5614085 38.5034871,99.5314085 C37.8165632,99.4714085 37.2032382,99.6814085 37.0069743,100.551408 C36.9579083,100.821408 37.1787052,101.421408 37.3259032,101.451408 C38.3808221,101.661408 39.0432131,100.581408 39.803736,100.011408 C40.196264,99.7114085 39.3376091,100.191408 40,99.7114085" id="Fill-2148"></path>
            <path d="M16.1042373,103.815 C16.4642373,104.205 16.7042373,104.685 16.9442373,104.685 C18.0242373,104.685 18.7442373,104.085 18.8942373,103.005 C18.9242373,102.795 18.5042373,102.315 18.2942373,102.315 C17.2742373,102.375 16.5842373,103.005 16.1042373,103.815" id="Fill-2149"></path>
            <path d="M500.848843,82.7120235 C501.328843,83.0420235 501.778843,83.5520235 502.378843,83.0120235 C502.498843,82.8920235 502.318843,82.2020235 502.078843,82.0220235 C501.838843,81.8120235 501.328843,81.6920235 500.998843,81.7820235 C500.488843,81.9020235 500.458843,82.2920235 500.848843,82.7120235" id="Fill-2150"></path>
            <path d="M40.3901779,82.5289258 C40.6301779,82.7989258 40.8401779,83.2189258 41.1401779,83.3389258 C41.7701779,83.5489258 42.3101779,83.2189258 42.5201779,82.6489258 C42.7901779,81.9889258 42.4301779,81.5689258 41.7101779,81.5989258 C41.1101779,81.6589258 40.6001779,81.8989258 40.3901779,82.5289258" id="Fill-2151"></path>
            <path d="M7.38,92.3450945 C7.8,92.4650945 8.16,92.2850945 8.19,91.8350945 C8.19,91.4750945 8.13,90.9350945 7.89,90.7850945 C7.29,90.3950945 6.81,90.7250945 6.81,91.4150945 C6.81,91.7150945 7.17,92.0450945 7.38,92.3450945" id="Fill-2152"></path>
            <path d="M6.945,85.2712323 C7.125,85.5712323 7.395,86.0212323 7.635,86.4712323 C7.785,86.2012323 8.055,85.9312323 8.055,85.6912323 C8.025,85.3312323 7.905,84.9112323 7.665,84.7012323 C7.305,84.3412323 7.005,84.5512323 6.945,85.2712323" id="Fill-2153"></path>
            <path d="M79.3984975,102.491518 C78.7384975,102.581518 78.2584975,102.881518 78.3784975,103.601518 C78.4684975,104.231518 78.9784975,104.561518 79.6084975,104.501518 C80.2684975,104.471518 80.7184975,104.021518 80.6284975,103.361518 C80.5684975,102.731518 79.9984975,102.521518 79.3984975,102.491518" id="Fill-2154"></path>
            <path d="M363.048441,21.6465444 C363.242204,23.1690803 363.791199,24.4553606 363.468261,26.2141521 C362.983853,28.8129635 363.645877,30.5192537 365.163687,30.9392636 C366.600762,31.3592735 366.923701,29.5217302 367.343521,27.8679412 C367.97325,25.3741323 367.278933,22.3553111 368.829037,20.1240085 C369.539501,19.1002343 367.876369,15.1101402 366.762232,15.0051377 C365.502772,14.9001352 365.486625,16.4226711 365.454331,17.9189564 C365.341303,21.5415419 365.325156,21.5415419 363,21.7777975 L363.048441,21.6465444" id="Fill-2155"></path>
            <path d="M362.954209,174 C364.728383,171.3936 369.176314,170.729223 372,168.327246 C369.601116,167.986541 367.702,167.628799 366.102744,168.838305 C365.028244,169.638964 363.678871,170.064847 362.379476,170.609976 C359.081011,172.023906 359.155976,172.330541 362.954209,174" id="Fill-2156"></path>
            <path d="M81.0308484,91.7310717 C80.8628301,92.72848 81.4004885,92.9517804 82.1733724,92.9964405 C83.2150854,93.0411005 83.8871584,92.6689333 83.9879693,91.6864117 C84.0887803,90.7336634 83.5511219,90.0488757 82.5598143,90.0042156 C81.1316593,89.9148954 81.5349031,91.2695843 81.0308484,91.7310717" id="Fill-2157"></path>
            <path d="M372,22.0090364 C372.72967,22.9377978 372.819278,24.0842378 373.625756,24.7227613 C373.971389,24.9839755 374.419432,25.1871421 374.790667,24.7227613 C375.174704,24.2438687 374.982686,23.8085117 374.598649,23.5037619 C373.868979,22.9232859 373.35693,21.8929412 372,22.0090364" id="Fill-2158"></path>
            <path d="M100.951644,106 C99.9624656,107.103306 98.9441943,107.933884 99.0023812,109 C102.580878,108.219008 102.580878,108.219008 100.951644,106" id="Fill-2159"></path>
            <path d="M351,173.939484 C352.820896,173.819484 352.820896,173.819484 354,171.539484 C352.567164,170.309484 351.850746,171.569484 351,173.939484" id="Fill-2160"></path>
            <path d="M239,125.093437 C238.008475,124.583437 237.029661,124.043437 236,125.303437 C237.512712,126.893437 237.512712,126.893437 239,125.093437" id="Fill-2161"></path>
            <path d="M372,39.0069567 C372.282557,39.7061515 372.825936,40.0436938 373.412786,39.9954734 C374.412604,39.8990328 374.977718,39.0792872 374.999454,38.0425502 C375.021189,37.2951351 374.390869,36.837042 373.760549,37.0540334 C372.912877,37.3433554 372.304292,38.0425502 372,39.0069567" id="Fill-2162"></path>
            <path d="M356.212402,24.9993668 C356.962402,24.6287768 356.842402,24.0401927 356.842402,23.5170068 C356.872402,22.7758268 356.572402,21.8820509 355.402402,22.0128474 C353.602402,22.1872427 354.142402,23.1682162 354.592402,23.9747944 C354.892402,24.4761809 355.222402,25.0211662 356.212402,24.9993668" id="Fill-2163"></path>
            <path d="M372,168 C373.720399,167.653773 375.110859,167.604311 374.993024,165.70006 C374.969457,165.452755 374.592383,165.081797 374.356712,165.032336 C372.542044,164.7603 372.447775,166.244132 372,168" id="Fill-2164"></path>
            <path d="M127,122.212946 C128.87013,123.622946 129.805195,122.032946 130,122.212946 C129.824675,122.212946 128.831169,122.212946 127,122.212946" id="Fill-2165"></path>
            <path d="M152,111.321218 C153.275908,112.041218 154.326656,111.801218 154.97712,110.301218 C155.077191,110.091218 154.827013,109.371218 154.651888,109.341218 C153.325944,109.071218 152.500356,109.851218 152,111.321218" id="Fill-2166"></path>
            <path d="M144.256234,109.048356 C143.626234,109.288356 143.296234,109.948356 143.326234,110.758356 C143.326234,111.718356 143.896234,112.198356 144.796234,111.868356 C145.636234,111.568356 145.756234,110.728356 145.636234,109.948356 C145.546234,109.348356 145.156234,108.928356 144.256234,109.048356" id="Fill-2167"></path>
            <path d="M71,92.3807793 C72.5686275,92.4707793 73.372549,92.2307793 74,90.9707793 C72.9803922,90.3107793 72.1176471,90.4007793 71,92.3807793" id="Fill-2168"></path>
            <path d="M113.341328,118.744251 C113.131328,119.014251 112.741328,119.314251 112.771328,119.554251 C112.891328,120.214251 113.461328,120.394251 114.031328,120.154251 C114.181328,120.094251 114.301328,119.494251 114.181328,119.254251 C114.061328,119.014251 113.641328,118.894251 113.341328,118.744251" id="Fill-2169"></path>
            <path d="M121.554928,119.570854 C121.824928,119.780854 122.064928,120.170854 122.334928,120.200854 C122.934928,120.260854 123.594928,120.080854 123.414928,119.270854 C123.384928,119.030854 122.784928,118.760854 122.484928,118.790854 C122.184928,118.850854 121.914928,119.240854 121.554928,119.570854" id="Fill-2170"></path>
            <path d="M277.460252,132.415869 C278.030252,132.385869 278.720252,132.325869 278.600252,131.545869 C278.510252,130.915869 277.910252,130.555869 277.280252,130.585869 C276.980252,130.615869 276.470252,130.945869 276.410252,131.215869 C276.260252,131.935869 276.830252,132.265869 277.460252,132.415869" id="Fill-2171"></path>
        </g>
    </g>
</svg>