<svg height="512" viewBox="0 0 64 64" width="512" xmlns="http://www.w3.org/2000/svg"><g id="News_Letter" data-name="News Letter"><path d="m15.3828 19.0137a.9975.9975 0 0 0 -1.09.2168l-8 8a.9988.9988 0 0 0 .123 1.5185l8 5.76a1 1 0 0 0 1.5842-.8117v-13.76a.999.999 0 0 0 -.6172-.9236z" fill="#275ed8"/><path d="m57.707 27.2305-8-8a1 1 0 0 0 -1.707.707v13.76a1 1 0 0 0 1.584.8115l8-5.76a.9988.9988 0 0 0 .123-1.5185z" fill="#275ed8"/><path d="m49 4.9375h-34a1 1 0 0 0 -1 1v27.76a1 1 0 0 0 .416.8115l12.83 9.24a.9968.9968 0 0 0 1.168 0l3.586-2.5801 3.5859 2.58a.9989.9989 0 0 0 1.168 0l12.83-9.24a1 1 0 0 0 .4161-.8116v-27.7598a1 1 0 0 0 -1-1z" fill="#e6ecff"/><path d="m58 28v30a1.0029 1.0029 0 0 1 -1 1h-50a1.0029 1.0029 0 0 1 -1-1v-30a1.0327 1.0327 0 0 1 .29-.71l.02-.01c0-.01.01-.01.01-.02l.57-.57c5.29 3.81 15.67 11.29 20.94 15.08l3.59-2.58a.9908.9908 0 0 1 1.16 0l3.59 2.58c5.27-3.79 15.65-11.27 20.94-15.08l.57.57c0 .01.01.01.01.02l.02.01a1.0327 1.0327 0 0 1 .29.71z" fill="#376cfb"/><path d="m39.74 59h-32.74a1.0029 1.0029 0 0 1 -1-1v-26.04c4.75 8.9 14.56 21.39 33.74 27.04z" fill="#275ed8"/><path d="m58 57.49v.51a1.0029 1.0029 0 0 1 -1 1h-50a1.0029 1.0029 0 0 1 -1-1v-.51l13.06-9.4 8.77-6.32 3.59-2.58a.9908.9908 0 0 1 1.16 0l3.59 2.58z" fill="#4294ff"/><path d="m39.74 59h-32.74a1.0029 1.0029 0 0 1 -1-1v-.51l13.06-9.4a56.5586 56.5586 0 0 0 20.68 10.91z" fill="#2f6bf2"/><rect fill="#376cfb" height="22" rx="1" width="26" x="19" y="11"/><path d="m38.09 33h-18.09a1.0029 1.0029 0 0 1 -1-1v-18.78c1.85 6.83 6.7 15.34 19.09 19.78z" fill="#275ed8"/><path d="m45 11v6h-26v-6a1.0029 1.0029 0 0 1 1-1h8v1h8v-1h8a1.0029 1.0029 0 0 1 1 1z" fill="#4294ff"/><path d="m22 28h4v2h-4z" fill="#a0b5e0"/><path d="m22 24h9v2h-9z" fill="#d0dbf7"/><path d="m19 17h26v1h-26z" fill="#275ed8"/><path d="m36 10h-8v9a1 1 0 0 0 1.5547.832l2.4453-1.6299 2.4453 1.63a1 1 0 0 0 1.5547-.8321z" fill="#d0dbf7"/><path d="m26.46 26h-4.46v-2h2.59a24.7956 24.7956 0 0 0 1.87 2z" fill="#a0b5e0"/><path d="m20.74 18h-1.74v-1h1.3c.14.33.29.66.44 1z" fill="#1e44bc"/><path d="m20.3 17h-1.3v-3.78a28.7627 28.7627 0 0 0 1.3 3.78z" fill="#2f6bf2"/></g></svg>