<svg id="Capa_1" enable-background="new 0 0 512 512" height="512" viewBox="0 0 512 512" width="512" xmlns="http://www.w3.org/2000/svg"><path d="m55.71 46.943v358.759c0 3.896 2.193 7.46 5.67 9.217l189.963 95.971c2.928 1.479 6.385 1.479 9.313 0l189.964-95.97c3.477-1.757 5.67-5.321 5.67-9.217v-358.76z" fill="#00a86d"/><path d="m55.71 46.943h400.58v17.734h-400.58z" fill="#008d1c"/><path d="m105.233 265.061 144.816 102.114c3.568 2.516 8.334 2.516 11.902 0l144.816-102.114c5.834-4.114 5.834-12.765 0-16.879l-144.816-102.114c-3.568-2.516-8.334-2.516-11.902 0l-144.816 102.114c-5.834 4.114-5.834 12.765 0 16.879z" fill="#ffea00"/><circle cx="256" cy="256.622" fill="#0078c9" r="52.159"/><path d="m221.614 228.013c-3.149 0-6.296.119-9.429.326-3.175 4.909-5.546 10.382-6.931 16.239 5.376-.7 10.864-1.075 16.36-1.075 34.643 0 66.319 14.193 81.14 36.24 2.769-5.587 4.565-11.739 5.169-18.239-19.41-20.662-51.723-33.491-86.309-33.491z" fill="#fff5f5"/><path d="m240.352-168.995h31.295v400.58h-31.295z" fill="#d9e7ec" transform="matrix(0 1 -1 0 287.295 -224.705)"/><path d="m55.71 34.425h400.58v12.518h-400.58z" fill="#c5d3dd"/><path d="m466.617 0h10.642c5.703 0 10.327 4.623 10.327 10.327v41.937c0 5.703-4.623 10.327-10.327 10.327h-10.642c-5.703 0-10.327-4.623-10.327-10.327v-41.937c0-5.704 4.623-10.327 10.327-10.327z" fill="#d9e7ec"/><path d="m487.585 52.264v-41.937c0-5.704-4.623-10.327-10.327-10.327h-2.191v62.591h2.191c5.704 0 10.327-4.624 10.327-10.327z" fill="#c5d3dd"/><path d="m34.742 0h10.642c5.703 0 10.326 4.623 10.326 10.327v41.937c0 5.703-4.623 10.327-10.327 10.327h-10.641c-5.703 0-10.327-4.623-10.327-10.327v-41.937c0-5.704 4.623-10.327 10.327-10.327z" fill="#d9e7ec"/><path d="m55.71 52.264v-41.937c0-5.704-4.623-10.327-10.327-10.327h-2.191v62.591h2.191c5.704 0 10.327-4.624 10.327-10.327z" fill="#c5d3dd"/></svg>