<svg id="Capa_1" enable-background="new 0 0 512 512" height="512" viewBox="0 0 512 512" width="512" xmlns="http://www.w3.org/2000/svg"><path d="m56.195 46.829v300.01l1 .723v31.438l-1 .87v24.849c0 3.258 1.537 6.284 4.079 8.21.49.371 2.977.119 3.537.402l63.103 31.88-1.684.722 65.383 33.032 130.767.004 65.379-33.03-1.332-.337 62.722-31.688c.538-.272 3.046-.587 3.519-.941.033-.024.065-.049.097-.073 2.518-1.927 4.04-4.939 4.04-8.181v-24.848l-1-.621v-31.75l1-.661v-33.03l-1-.685v-31.58l1-.765v-33.039l-1-.726v-31.453l1-.856v-33.035l-1-1.922v-30.497l1-.605v-33.037l-1-.67v-31.756l1-.606v-35.748z" fill="#fc2b3a"/><path d="m56.195 148.646h399.61v33.03h-399.61z" fill="#fff5f5"/><path d="m56.195 214.707h399.61v33.03h-399.61z" fill="#fff5f5"/><path d="m56.195 280.778h399.61v33.03h-399.61z" fill="#fff5f5"/><path d="m56.195 346.838h399.61v33.03h-399.61z" fill="#fff5f5"/><path d="m451.765 412.897c-.505.391-1.04.731-1.617 1.02l-63.387 32.018h-261.522l-63.387-32.018c-.577-.288-1.113-.629-1.617-1.02z" fill="#fff5f5"/><path d="m321.384 478.97-65.384 33.03-65.384-33.03z" fill="#fff5f5"/><path d="m56.195 46.829h399.61v17.691h-399.61z" fill="#c32430"/><path d="m56.195 82.576h399.61v33.041h-399.61z" fill="#fff5f5"/><path d="m56.195 46.829h271.61v266.979h-271.61z" fill="#004281"/><path d="m56.195 46.829h271.61v17.691h-271.61z" fill="#00366d"/><g fill="#fff5f5"><circle cx="102.93" cy="90.816" r="15.61"/><circle cx="162.403" cy="90.816" r="15.61"/><circle cx="221.875" cy="90.816" r="15.61"/><circle cx="281.348" cy="90.816" r="15.61"/><circle cx="102.93" cy="150.484" r="15.61"/><circle cx="162.403" cy="150.484" r="15.61"/><circle cx="221.875" cy="150.484" r="15.61"/><circle cx="281.348" cy="150.484" r="15.61"/><circle cx="102.93" cy="210.153" r="15.61"/><circle cx="162.403" cy="210.153" r="15.61"/><circle cx="221.875" cy="210.153" r="15.61"/><circle cx="281.348" cy="210.153" r="15.61"/><circle cx="102.93" cy="269.822" r="15.61"/><circle cx="162.403" cy="269.822" r="15.61"/><circle cx="221.875" cy="269.822" r="15.61"/><circle cx="281.348" cy="269.822" r="15.61"/></g><path d="m240.352-168.995h31.295v400.58h-31.295z" fill="#d9e7ec" transform="matrix(0 1 -1 0 287.295 -224.705)"/><path d="m55.71 34.425h400.58v12.518h-400.58z" fill="#c5d3dd"/><path d="m466.617 0h10.642c5.703 0 10.327 4.623 10.327 10.327v41.937c0 5.703-4.623 10.327-10.327 10.327h-10.642c-5.703 0-10.327-4.623-10.327-10.327v-41.937c0-5.704 4.623-10.327 10.327-10.327z" fill="#d9e7ec"/><path d="m487.585 52.264v-41.937c0-5.704-4.623-10.327-10.327-10.327h-2.191v62.591h2.191c5.704 0 10.327-4.624 10.327-10.327z" fill="#c5d3dd"/><path d="m34.742 0h10.642c5.703 0 10.326 4.623 10.326 10.327v41.937c0 5.703-4.623 10.327-10.327 10.327h-10.641c-5.703 0-10.327-4.623-10.327-10.327v-41.937c0-5.704 4.623-10.327 10.327-10.327z" fill="#d9e7ec"/><path d="m55.71 52.264v-41.937c0-5.704-4.623-10.327-10.327-10.327h-2.191v62.591h2.191c5.704 0 10.327-4.624 10.327-10.327z" fill="#c5d3dd"/></svg>