<?xml version="1.0" encoding="iso-8859-1"?>
<!-- Generator: Adobe Illustrator 19.0.0, SVG Export Plug-In . SVG Version: 6.00 Build 0)  -->
<svg version="1.1" id="Capa_1" xmlns="http://www.w3.org/2000/svg" xmlns:xlink="http://www.w3.org/1999/xlink" x="0px" y="0px"
	 viewBox="0 0 512 512" style="enable-background:new 0 0 512 512;" xml:space="preserve">
<path style="fill:#0055C3;" d="M449.636,0.003H62.357C27.973,0.003,0,27.977,0,62.36v387.28c0,34.384,27.973,62.357,62.357,62.357
	h387.28c34.384,0,62.357-27.973,62.357-62.357V62.36C511.993,27.977,484.02,0.003,449.636,0.003z"/>
<path style="fill:#003282;" d="M449.643,0.003H297.491v511.994h152.153c34.384,0,62.357-27.973,62.357-62.357V62.36
	C512,27.977,484.026,0.003,449.643,0.003z"/>
<path style="fill:#FFFFFF;" d="M403.582,328.69c8.349,0,15.118-6.769,15.118-15.118v-73.268c0-8.349-6.769-15.118-15.118-15.118
	h-54.34v-32.864h54.34c8.349,0,15.118-6.769,15.118-15.118v-73.268c0-8.349-6.769-15.118-15.118-15.118h-67.55
	c-49.788,0-90.293,40.505-90.293,90.293v46.074h-54.34c-8.349,0-15.118,6.769-15.118,15.118v73.268
	c0,8.349,6.769,15.118,15.118,15.118h54.34v183.307h103.504V328.69H403.582z"/>
<path style="fill:#DCE1EB;" d="M403.582,192.322c8.349,0,15.118-6.769,15.118-15.118v-73.268c0-8.349-6.769-15.118-15.118-15.118
	h-67.55c-13.781,0-26.845,3.113-38.541,8.659v414.519h51.752V328.69h54.34c8.349,0,15.118-6.769,15.118-15.118v-73.268
	c0-8.349-6.769-15.118-15.118-15.118h-54.34v-32.864h54.339V192.322z"/>
<g>
</g>
<g>
</g>
<g>
</g>
<g>
</g>
<g>
</g>
<g>
</g>
<g>
</g>
<g>
</g>
<g>
</g>
<g>
</g>
<g>
</g>
<g>
</g>
<g>
</g>
<g>
</g>
<g>
</g>
</svg>
