<?xml version="1.0" encoding="iso-8859-1"?>
<!-- Generator: Adobe Illustrator 19.0.0, SVG Export Plug-In . SVG Version: 6.00 Build 0)  -->
<svg version="1.1" id="Capa_1" xmlns="http://www.w3.org/2000/svg" xmlns:xlink="http://www.w3.org/1999/xlink" x="0px" y="0px"
	 viewBox="0 0 512 512" style="enable-background:new 0 0 512 512;" xml:space="preserve">
<path style="fill:#FF54CC;" d="M371.643,512H140.357C62.964,512,0,449.037,0,371.643V140.358C0,62.964,62.964,0,140.357,0h231.286
	C449.037,0,512,62.964,512,140.358v231.285C512,449.037,449.037,512,371.643,512z"/>
<path style="fill:#F02093;" d="M371.643,0H256v512h115.643C449.037,512,512,449.036,512,371.643V140.358
	C512,62.964,449.037,0,371.643,0z"/>
<path style="fill:#FFFFFF;" d="M256,396.432c-77.435,0-140.431-62.997-140.431-140.431S178.566,115.57,256,115.57
	S396.432,178.566,396.432,256S333.434,396.432,256,396.432z M256,145.804c-60.762,0-110.196,49.434-110.196,110.196
	S195.238,366.197,256,366.197c60.763,0,110.197-49.434,110.197-110.196S316.763,145.804,256,145.804z"/>
<g>
	<path style="fill:#DCE1EB;" d="M404.831,149.836c-23.526,0-42.666-19.14-42.666-42.666s19.14-42.667,42.666-42.667
		c23.527,0,42.666,19.14,42.666,42.666S428.358,149.836,404.831,149.836z"/>
	<path style="fill:#DCE1EB;" d="M256.003,115.569v30.236c60.761,0.002,110.193,49.435,110.193,110.196
		s-49.432,110.195-110.193,110.197v30.236c77.433-0.002,140.428-62.998,140.428-140.431S333.436,115.571,256.003,115.569z"/>
</g>
<g>
</g>
<g>
</g>
<g>
</g>
<g>
</g>
<g>
</g>
<g>
</g>
<g>
</g>
<g>
</g>
<g>
</g>
<g>
</g>
<g>
</g>
<g>
</g>
<g>
</g>
<g>
</g>
<g>
</g>
</svg>
