<?xml version="1.0" encoding="iso-8859-1"?>
<!-- Generator: Adobe Illustrator 19.0.0, SVG Export Plug-In . SVG Version: 6.00 Build 0)  -->
<svg version="1.1" id="Capa_1" xmlns="http://www.w3.org/2000/svg" xmlns:xlink="http://www.w3.org/1999/xlink" x="0px" y="0px"
	 viewBox="0 0 512.001 512.001" style="enable-background:new 0 0 512.001 512.001;" xml:space="preserve">
<path style="fill:#FFE664;" d="M496.668,424.626H15.331c-8.466,0-15.329-6.863-15.329-15.329V102.704
	c0-8.466,6.863-15.329,15.329-15.329h481.337c8.466,0,15.329,6.863,15.329,15.329v306.593
	C511.998,417.763,505.134,424.626,496.668,424.626z"/>
<path style="fill:#FFD72D;" d="M496.669,424.623H15.33c-6.434,0-12.185-4.019-14.395-10.061c-2.212-6.043-0.413-12.823,4.502-16.977
	L192.485,239.53h127.031l187.048,158.055c4.915,4.153,6.712,10.934,4.502,16.977C508.854,420.604,503.104,424.623,496.669,424.623z"
	/>
<path style="fill:#FFC82D;" d="M256,309.143c-3.37,0-6.741-1.108-9.532-3.323L5.797,114.714c-5.107-4.055-7.088-10.896-4.941-17.053
	c2.147-6.156,7.954-10.282,14.475-10.282H496.67c6.52,0,12.328,4.125,14.475,10.282c2.147,6.156,0.165,12.998-4.941,17.053
	L319.156,263.245l-53.623,42.576C262.741,308.034,259.37,309.143,256,309.143z"/>
<path style="fill:#FFD72D;" d="M496.668,87.375H255.997v337.251h240.672c8.466,0,15.329-6.863,15.329-15.329V102.704
	C511.998,94.238,505.134,87.375,496.668,87.375z"/>
<path style="fill:#FFB932;" d="M506.563,397.584L319.515,239.529h-63.519v185.094h240.673c6.434,0,12.185-4.019,14.395-10.061
	C513.276,408.519,511.478,401.738,506.563,397.584z"/>
<path style="fill:#EBAA19;" d="M496.669,87.379H255.997v221.764c0.001,0,0.002,0,0.003,0c3.37,0,6.742-1.108,9.532-3.323
	l240.671-191.105c5.107-4.055,7.088-10.896,4.941-17.053C508.996,91.504,503.189,87.379,496.669,87.379z"/>
<g>
</g>
<g>
</g>
<g>
</g>
<g>
</g>
<g>
</g>
<g>
</g>
<g>
</g>
<g>
</g>
<g>
</g>
<g>
</g>
<g>
</g>
<g>
</g>
<g>
</g>
<g>
</g>
<g>
</g>
</svg>
