<?xml version="1.0" encoding="iso-8859-1"?>
<!-- Generator: Adobe Illustrator 19.0.0, SVG Export Plug-In . SVG Version: 6.00 Build 0)  -->
<svg version="1.1" id="Capa_1" xmlns="http://www.w3.org/2000/svg" xmlns:xlink="http://www.w3.org/1999/xlink" x="0px" y="0px"
	 viewBox="0 0 512 512" style="enable-background:new 0 0 512 512;" xml:space="preserve">
<path style="fill:#6EE1FF;" d="M212.059,478.699c-3.488,0-6.904-0.044-10.253-0.125c-84.671-2.059-165.218-29.537-187.326-53.907
	c-4.122-4.545-5.124-11.115-2.544-16.681s8.237-9.024,14.376-8.837c53.034,1.821,89.531-2.61,123.341-29.087
	c-29.736-7.315-71.6-22.562-100.581-53.539c-3.77-4.03-5.072-9.779-3.407-15.039c1.665-5.26,6.039-9.213,11.441-10.339
	c5.437-1.133,10.784-2.615,16.024-4.44c-40.243-19.873-65.72-53.45-72.926-97.138c-0.871-5.281,1.086-10.632,5.16-14.104
	c4.074-3.472,9.668-4.559,14.743-2.862c5.924,1.979,11.266,3.695,16.286,4.963c-18.211-35.399-16.581-78.428,6.649-109.809
	c3.106-4.197,8.132-6.509,13.349-6.146c5.208,0.368,9.866,3.372,12.351,7.963c37.454,69.207,100.794,112.037,175.623,119.537
	c-2.805-39.996,12.243-80.103,40.873-106.183c34.304-31.249,84.156-37.502,124.06-16.436l64.587-31.631
	c5.873-2.877,12.925-1.694,17.539,2.943c4.612,4.637,5.76,11.696,2.854,17.555l-24.403,49.193l25.53-2.224
	c5.766-0.5,11.305,2.291,14.332,7.215s3.014,11.134-0.033,16.046l-23.881,38.49c0.157,1.15,0.348,2.465,0.528,3.704
	c2.445,16.855,7.533,51.928-0.518,95.725c-9.969,54.226-36.669,103.367-79.356,146.053
	C350.081,465.954,271.51,478.698,212.059,478.699z"/>
<path style="fill:#05CDFF;" d="M495.407,102.323l-25.53,2.224l24.403-49.193c2.906-5.859,1.759-12.918-2.854-17.555
	c-4.614-4.637-11.667-5.819-17.539-2.943l-64.587,31.631c-39.903-21.065-89.756-14.813-124.06,16.436
	c-28.63,26.08-43.679,66.187-40.873,106.184c-0.878-0.088-1.748-0.206-2.623-0.303v288.799
	c54.225-4.072,117.317-20.629,164.737-68.049c42.687-42.687,69.387-91.827,79.356-146.053c8.052-43.797,2.963-78.869,0.518-95.725
	c-0.18-1.239-0.371-2.554-0.528-3.704l23.881-38.49c3.047-4.911,3.06-11.123,0.033-16.046
	C506.711,104.613,501.173,101.823,495.407,102.323z"/>
<g>
</g>
<g>
</g>
<g>
</g>
<g>
</g>
<g>
</g>
<g>
</g>
<g>
</g>
<g>
</g>
<g>
</g>
<g>
</g>
<g>
</g>
<g>
</g>
<g>
</g>
<g>
</g>
<g>
</g>
</svg>
